<svg id="Laag_1" data-name="Laag 1" xmlns="http://www.w3.org/2000/svg" xmlns:xlink="http://www.w3.org/1999/xlink"
     viewBox="0 0 240.94 155.91">
    <defs>
        <style>
            .cls-1{fill:#080a20;}.cls-2{fill:url(#Naamloos_verloop_43);}.cls-3{fill:url(#Naamloos_verloop_43-2);}.cls-4{fill:url(#Naamloos_verloop_43-3);}.cls-5{fill:url(#Naamloos_verloop_43-4);}.cls-6{fill:url(#Naamloos_verloop_43-5);}.cls-7{fill:url(#Naamloos_verloop_43-6);}.cls-8{fill:url(#Naamloos_verloop_43-7);}.cls-9{fill:url(#Naamloos_verloop_43-8);}.cls-10{fill:url(#Naamloos_verloop_43-9);}.cls-11{fill:url(#Naamloos_verloop_43-10);}.cls-12{fill:url(#Naamloos_verloop_43-11);}.cls-13{fill:url(#Naamloos_verloop_43-12);}.cls-14{fill:url(#Naamloos_verloop_43-13);}.cls-15{fill:url(#Naamloos_verloop_43-14);}.cls-16{fill:url(#Naamloos_verloop_43-15);}.cls-17{fill:url(#Naamloos_verloop_43-16);}.cls-18{fill:url(#Naamloos_verloop_43-17);}.cls-19,.cls-20,.cls-21{fill:none;stroke-miterlimit:10;stroke-width:0.7px;}.cls-19{stroke:url(#Naamloos_verloop_43-18);}.cls-20{stroke:url(#Naamloos_verloop_43-19);}.cls-21{stroke:url(#Naamloos_verloop_43-20);}
        </style>
        <linearGradient id="Naamloos_verloop_43" x1="52.94" y1="78.27" x2="96.42" y2="78.27"
                        gradientUnits="userSpaceOnUse">
            <stop offset="0" stop-color="#c0863b"/>
            <stop offset="0.27" stop-color="#eee55e"/>
            <stop offset="0.49" stop-color="#eff6a9"/>
            <stop offset="0.74" stop-color="#eee55e"/>
            <stop offset="1" stop-color="#c0863b"/>
        </linearGradient>
        <linearGradient id="Naamloos_verloop_43-2" x1="95.46" y1="81.61" x2="116.58" y2="81.61"
                        xlink:href="#Naamloos_verloop_43"/>
        <linearGradient id="Naamloos_verloop_43-3" x1="121.62" y1="76.71" x2="126.82" y2="76.71"
                        xlink:href="#Naamloos_verloop_43"/>
        <linearGradient id="Naamloos_verloop_43-4" x1="130.1" y1="78.55" x2="142.74" y2="78.55"
                        xlink:href="#Naamloos_verloop_43"/>
        <linearGradient id="Naamloos_verloop_43-5" x1="144.42" y1="81.61" x2="166.54" y2="81.61"
                        xlink:href="#Naamloos_verloop_43"/>
        <linearGradient id="Naamloos_verloop_43-6" x1="170.14" y1="81.45" x2="188.34" y2="81.45"
                        xlink:href="#Naamloos_verloop_43"/>
        <linearGradient id="Naamloos_verloop_43-7" x1="83.94" y1="48.75" x2="88.19" y2="48.75"
                        gradientTransform="matrix(1, -0.01, 0.01, 1, -0.52, 1.41)" xlink:href="#Naamloos_verloop_43"/>
        <linearGradient id="Naamloos_verloop_43-8" x1="88.84" y1="46.03" x2="94.94" y2="46.03"
                        gradientTransform="matrix(1, -0.01, 0.01, 1, -0.52, 1.41)" xlink:href="#Naamloos_verloop_43"/>
        <linearGradient id="Naamloos_verloop_43-9" x1="95.71" y1="43.48" x2="100.61" y2="43.48"
                        gradientTransform="matrix(1, -0.01, 0.01, 1, -0.52, 1.41)" xlink:href="#Naamloos_verloop_43"/>
        <linearGradient id="Naamloos_verloop_43-10" x1="103.17" y1="42.22" x2="108.63" y2="42.22"
                        gradientTransform="matrix(1, -0.01, 0.01, 1, -0.52, 1.41)" xlink:href="#Naamloos_verloop_43"/>
        <linearGradient id="Naamloos_verloop_43-11" x1="110.69" y1="41.19" x2="115.95" y2="41.19"
                        gradientTransform="matrix(1, -0.01, 0.01, 1, -0.52, 1.41)" xlink:href="#Naamloos_verloop_43"/>
        <linearGradient id="Naamloos_verloop_43-12" x1="118.5" y1="40.94" x2="123.41" y2="40.94"
                        gradientTransform="matrix(1, -0.01, 0.01, 1, -0.52, 1.41)" xlink:href="#Naamloos_verloop_43"/>
        <linearGradient id="Naamloos_verloop_43-13" x1="125.91" y1="41.46" x2="131.07" y2="41.46"
                        gradientTransform="matrix(1, -0.01, 0.01, 1, -0.52, 1.41)" xlink:href="#Naamloos_verloop_43"/>
        <linearGradient id="Naamloos_verloop_43-14" x1="133.3" y1="42.78" x2="138.36" y2="42.78"
                        gradientTransform="matrix(1, -0.01, 0.01, 1, -0.52, 1.41)" xlink:href="#Naamloos_verloop_43"/>
        <linearGradient id="Naamloos_verloop_43-15" x1="140.02" y1="44.3" x2="143.56" y2="44.3"
                        gradientTransform="matrix(1, -0.01, 0.01, 1, -0.52, 1.41)" xlink:href="#Naamloos_verloop_43"/>
        <linearGradient id="Naamloos_verloop_43-16" x1="144.71" y1="46.57" x2="150.9" y2="46.57"
                        gradientTransform="matrix(1, -0.01, 0.01, 1, -0.52, 1.41)" xlink:href="#Naamloos_verloop_43"/>
        <linearGradient id="Naamloos_verloop_43-17" x1="151.96" y1="50.11" x2="157.21" y2="50.11"
                        gradientTransform="matrix(1, -0.01, 0.01, 1, -0.52, 1.41)" xlink:href="#Naamloos_verloop_43"/>
        <linearGradient id="Naamloos_verloop_43-18" x1="84.86" y1="107.31" x2="114.22" y2="107.31"
                        xlink:href="#Naamloos_verloop_43"/>
        <linearGradient id="Naamloos_verloop_43-19" x1="126.72" y1="107.31" x2="156.07" y2="107.31"
                        xlink:href="#Naamloos_verloop_43"/>
        <linearGradient id="Naamloos_verloop_43-20" x1="90.85" y1="118.06" x2="98.1" y2="118.06"
                        gradientTransform="translate(137.11 -42.98) rotate(45)" xlink:href="#Naamloos_verloop_43"/>
    </defs>
    <rect class="cls-1" x="-8.5" y="-8.5" width="257.95" height="172.91"/>
    <path class="cls-2"
          d="M85.38,86.15l10.68-22h.36L82.66,92.43h-.08L74.7,76.31,66.78,92.43H66.7L52.94,64.11H59L69.54,86.19l5-10.2-5.8-11.88h6.08Z"/>
    <path class="cls-3"
          d="M113.76,72.53q2.82,1.74,2.82,6.06V92.11h-4.32l-.84-5.8A9.47,9.47,0,0,1,108,90.67a10,10,0,0,1-6,1.76,8,8,0,0,1-4.8-1.24,4.18,4.18,0,0,1-1.68-3.6,3.89,3.89,0,0,1,1.08-2.9,6.72,6.72,0,0,1,2.66-1.56,41.11,41.11,0,0,1,4.3-1,31.37,31.37,0,0,0,4.9-1.3,6.69,6.69,0,0,0,3-2.1V77.55A6.22,6.22,0,0,0,109.72,73a6.62,6.62,0,0,0-4.94-1.7,9.34,9.34,0,0,0-5.08,1.34,4.31,4.31,0,0,0-2.12,3.86,3.6,3.6,0,0,0,.68,2.22A3.55,3.55,0,0,0,100.14,80l-.12.32a4.08,4.08,0,0,1-1.92-1.26,3.65,3.65,0,0,1-.84-2.54,4.57,4.57,0,0,1,2.62-4.36,13.91,13.91,0,0,1,6.42-1.36A14.08,14.08,0,0,1,113.76,72.53ZM107.6,90.29A8.44,8.44,0,0,0,110,87.93a8.83,8.83,0,0,0,1.34-2.82V79.19a6.14,6.14,0,0,1-2,1.44,29,29,0,0,1-3,1,19,19,0,0,0-2.88,1,4.35,4.35,0,0,0-1.74,1.6,5.68,5.68,0,0,0-.7,3.06,4.62,4.62,0,0,0,.8,2.78,3,3,0,0,0,2.6,1.1A5.66,5.66,0,0,0,107.6,90.29Z"/>
    <path class="cls-4" d="M126.82,92.11h-5.2v-30l5.2-.84Z"/>
    <path class="cls-5"
          d="M142.74,90.59v.32a8.71,8.71,0,0,1-4.88,1.52,4.76,4.76,0,0,1-3.48-1.24,5.2,5.2,0,0,1-1.28-3.88V71.43h-3v-.32h3l5-6.44h.16v6.44h4v.32h-4v16.8a4.31,4.31,0,0,0,.5,2.18,1.82,1.82,0,0,0,1.74.86A4.17,4.17,0,0,0,142.74,90.59Z"/>
    <path class="cls-6"
          d="M166.54,83.91a14.36,14.36,0,0,1-4.44,6.16,10.73,10.73,0,0,1-6.92,2.36,11.53,11.53,0,0,1-5.76-1.38,9.27,9.27,0,0,1-3.72-3.78A11.15,11.15,0,0,1,144.42,82a10.49,10.49,0,0,1,6.08-9.82,14.34,14.34,0,0,1,6.24-1.34,11,11,0,0,1,4.64.88A6.32,6.32,0,0,1,164.16,74a5.89,5.89,0,0,1,.9,3.14,5.43,5.43,0,0,1-.36,2H150a15.56,15.56,0,0,0-.08,1.8,9.93,9.93,0,0,0,2.14,6.7,7.17,7.17,0,0,0,5.74,2.5,7.9,7.9,0,0,0,5-1.7,11.28,11.28,0,0,0,3.42-4.66Zm-14-10.5a9.21,9.21,0,0,0-2.52,5.42h14.4a4.83,4.83,0,0,0,.28-1.64,5.41,5.41,0,0,0-.84-3,5.77,5.77,0,0,0-2.38-2.08,8,8,0,0,0-3.54-.76A7.37,7.37,0,0,0,152.58,73.41Z"/>
    <path class="cls-7"
          d="M187,72.15a4.88,4.88,0,0,1,1.3,3.52,6.54,6.54,0,0,1-1,3.56l-.28-.16a6.14,6.14,0,0,0,1-3.4,4.25,4.25,0,0,0-4.6-4.56,6.4,6.4,0,0,0-5,2.52,15.43,15.43,0,0,0-3.12,6.68v11.8h-5.2V71.63l4.88-.84.24,8.44a14.72,14.72,0,0,1,3.3-6.16,6.59,6.59,0,0,1,4.86-2.28A4.79,4.79,0,0,1,187,72.15Z"/>
    <path class="cls-8" d="M84,47.55l.2-.11,2.39,4.26-.19.11Zm2.8,4-2.4-4.27,1.49-.83,2.39,4.26Z"/>
    <path class="cls-9"
          d="M88.84,45.11a.11.11,0,0,1,0-.14H89l4.77.54-.74-1.77s0-.1-.08-.16l-.06-.13c0-.09,0-.15.07-.18a.11.11,0,0,1,.16.06l0,.14c0,.07.06.13.08.19l1.52,3.62-5.34-.65Zm1.79,4.31c0-.06-.06-.15-.1-.25a2,2,0,0,0-.1-.27l-.85-2,5.33.64,0,.11c0,.05,0,.08,0,.11h-.15L90,47.15l.72,1.73a1.5,1.5,0,0,0,.09.18,2.17,2.17,0,0,1,.1.21c0,.1,0,.17-.07.21a.17.17,0,0,1-.1,0A.07.07,0,0,1,90.63,49.42Z"/>
    <path class="cls-10"
          d="M96.72,42.2l-.51.17-.34.12a.17.17,0,0,1-.12,0,.13.13,0,0,1-.07-.1.14.14,0,0,1,0-.11.24.24,0,0,1,.08-.06l1.5-.44,1.37,4.7-.23.07-1.3-4.47Zm2.14,4.23-1.37-4.7,2.86-.84h.12s.06,0,.08.09,0,.15-.09.17l-.14,0-.21,0-.26.07-.29.07-.37.11,1.3,4.47Z"/>
    <path class="cls-11"
          d="M103.11,40.25l.22,0,.89,4.81-.22,0ZM104.45,45l-.89-4.81,2-.36a3.36,3.36,0,0,1,.9-.06,2.36,2.36,0,0,1,.85.21,1.9,1.9,0,0,1,.68.52,1.82,1.82,0,0,1,.38.88,2.07,2.07,0,0,1,0,.93A1.68,1.68,0,0,1,108,43a1.82,1.82,0,0,1-.56.47,2.94,2.94,0,0,1-.67.27l.53.21a3.05,3.05,0,0,0,.5.15l.29,0h.44a.1.1,0,0,1,.08.07.12.12,0,0,1,0,.11.23.23,0,0,1-.15.06h-.24a1.44,1.44,0,0,1-.43-.06,4.91,4.91,0,0,1-.93-.29,8.57,8.57,0,0,1-.91-.45l.2,1.11Zm.82-4.91.59,3.19.29.15.3.16a3,3,0,0,0,.7-.22,1.85,1.85,0,0,0,.58-.41,1.67,1.67,0,0,0,.36-.64,1.88,1.88,0,0,0,0-.89,1.69,1.69,0,0,0-.35-.79,1.62,1.62,0,0,0-.62-.46,2,2,0,0,0-.77-.18,3.1,3.1,0,0,0-.81,0Z"/>
    <path class="cls-12"
          d="M110.65,41.5a2.55,2.55,0,0,1,0-.68,3,3,0,0,1,.22-.64l.22,2.58a2.82,2.82,0,0,1-.32-.59A2.43,2.43,0,0,1,110.65,41.5Zm2.85,2.37a2.51,2.51,0,0,1-1.16-.17,2.69,2.69,0,0,1-1-.62l-.27-3.25A2.76,2.76,0,0,1,112,39a2.79,2.79,0,0,1,2.17-.26,2.42,2.42,0,0,1,.86.44,2.56,2.56,0,0,1,.62.76,2.86,2.86,0,0,1,.29,1,3.11,3.11,0,0,1-.1,1.06,2.74,2.74,0,0,1-.46.88,2.52,2.52,0,0,1-.78.62A2.73,2.73,0,0,1,113.5,43.87Zm-.39-4.95a1.57,1.57,0,0,0-.3,0l.4,4.67h.27a2.49,2.49,0,0,0,1-.27,2.31,2.31,0,0,0,.7-.57,2.25,2.25,0,0,0,.41-.8,2.54,2.54,0,0,0,.09-1,2.56,2.56,0,0,0-.26-.94,2.34,2.34,0,0,0-.56-.68A2.11,2.11,0,0,0,114,39,2.42,2.42,0,0,0,113.11,38.92Z"/>
    <path class="cls-13"
          d="M118.51,38.49h.23l0,4.9h-.23Zm.43,4.9,0-4.89h1.81a4,4,0,0,1,1,.13,1.75,1.75,0,0,1,.81.47,2.38,2.38,0,0,1,.55.8,2.6,2.6,0,0,1,.2,1.06,2.56,2.56,0,0,1-.18,1,2.79,2.79,0,0,1-.5.79,1.81,1.81,0,0,1-.84.53,3.34,3.34,0,0,1-1.12.15Zm1.73-4.64,0,4.41h.08a3.15,3.15,0,0,0,1-.12,1.65,1.65,0,0,0,.76-.48,2.55,2.55,0,0,0,.46-.71,2.46,2.46,0,0,0,.16-.88,2.3,2.3,0,0,0-.68-1.7,1.55,1.55,0,0,0-.74-.41,3.72,3.72,0,0,0-.91-.11Z"/>
    <path class="cls-14"
          d="M126.23,38.7l.35,0-.46,4.43a1.15,1.15,0,0,1-.17-.33,1.32,1.32,0,0,1-.07-.32c0-.1,0-.2,0-.29s0-.17,0-.24Zm4.48.64c0-.08,0-.12.08-.13h.13l.05,0a.12.12,0,0,1,0,.09l-.06.31c0,.16-.06.38-.09.65l-.2,1.94a3,3,0,0,1-.15.68,1.73,1.73,0,0,1-.38.62,1.63,1.63,0,0,1-.7.43,2.55,2.55,0,0,1-1.11.09c-.37,0-.68-.09-1-.14a2.29,2.29,0,0,1-.66-.24l-.21-.12-.16-.13.49-4.66,1.56.16-.5,4.82.22,0,.23,0a3.55,3.55,0,0,0,.73,0,1.44,1.44,0,0,0,.69-.25,1.22,1.22,0,0,0,.32-.32,1.9,1.9,0,0,0,.2-.37,1.78,1.78,0,0,0,.1-.36c0-.12,0-.22,0-.31Z"/>
    <path class="cls-15"
          d="M133.32,42.06a2.38,2.38,0,0,1,.6-1.18l-.52,2.51a2.88,2.88,0,0,1-.13-.65A2.26,2.26,0,0,1,133.32,42.06ZM137.83,44l0,0H138A.09.09,0,0,1,138,44a.17.17,0,0,1,0,.07v0s0,0,0,0h0a2.42,2.42,0,0,1-.49.52,2,2,0,0,1-.62.37,2.87,2.87,0,0,1-.73.16,2.81,2.81,0,0,1-.81,0,2.57,2.57,0,0,1-1.07-.5,2.74,2.74,0,0,1-.74-.88l.66-3.17a3,3,0,0,1,1-.52,2.7,2.7,0,0,1,1.2,0,2.63,2.63,0,0,1,.94.39,2.27,2.27,0,0,1,.69.69l.16.26a.38.38,0,0,1,.07.25.13.13,0,0,1,0,.06s-.05,0-.1,0,0,0-.06,0a.05.05,0,0,1,0,0,2.08,2.08,0,0,0-.63-.87,2.41,2.41,0,0,0-1-.49l-.3,0-1,4.6.13,0,.13,0a2.71,2.71,0,0,0,.74.05,2.32,2.32,0,0,0,1.23-.47A2.22,2.22,0,0,0,137.83,44Z"/>
    <path class="cls-16" d="M141.45,41.4l.21.06-1.42,4.69-.21-.07Zm-1,4.82,1.42-4.69,1.63.5-1.42,4.68Z"/>
    <path class="cls-17"
          d="M144.74,47.5l.12-.25L145,47l.85-2,3.28,4.26,0,.1s-.07.07-.12,0-.07,0-.11-.1l-3-3.83-.72,1.72-.07.2s0,.12-.08.21a.14.14,0,0,1-.2.09.13.13,0,0,1-.07-.06A.1.1,0,0,1,144.74,47.5Zm1.83-4.3a.1.1,0,0,1,.13-.06l.05,0a.19.19,0,0,1,.07.06l3,3.79.74-1.77.06-.18c0-.06,0-.11,0-.13a.13.13,0,0,1,.18-.08.12.12,0,0,1,.07.17l-.06.13-.09.19L149.21,49l-3.27-4.27Z"/>
    <path class="cls-18"
          d="M152.37,48.35a2.22,2.22,0,0,1,.43-.53,2.9,2.9,0,0,1,.53-.39L152,49.63a2.37,2.37,0,0,1,.09-.65A2.5,2.5,0,0,1,152.37,48.35ZM156,51.69a2.38,2.38,0,0,0,.27-.23,1.68,1.68,0,0,0,.3-.38l-1.49-.89-.19-.11-.17-.09a.1.1,0,0,1,0-.08.11.11,0,0,1,0-.08.12.12,0,0,1,.07,0,.14.14,0,0,1,.09,0l.09,0,.07,0,1.83,1.1,0,0s0,0,0,.1l-.07.11a2,2,0,0,1-.22.32,2.4,2.4,0,0,1-.24.22,1.27,1.27,0,0,1-.2.16L156,52a2.63,2.63,0,0,1-.6.25,2.52,2.52,0,0,1-.67.09,2.48,2.48,0,0,1-.71-.1,2.45,2.45,0,0,1-.69-.3,2.39,2.39,0,0,1-.85-.82A2.8,2.8,0,0,1,152,50l1.67-2.78a2.63,2.63,0,0,1,1.15-.14,2.52,2.52,0,0,1,1.14.37,2.63,2.63,0,0,1,.76.68,2.39,2.39,0,0,1,.42.88c0,.08,0,.18.07.3a.39.39,0,0,1,0,.25s0,0-.06,0a.09.09,0,0,1-.1,0l-.06,0a.25.25,0,0,1,0-.07,2.09,2.09,0,0,0-.3-1,2.48,2.48,0,0,0-.81-.8l-.27-.13-2.42,4,.11.08.12.07a2.36,2.36,0,0,0,2.42.07l0,0,0,0,0,0Z"/>
    <line class="cls-19" x1="84.86" y1="107.31" x2="114.22" y2="107.31"/>
    <line class="cls-20" x1="126.72" y1="107.31" x2="156.07" y2="107.31"/>
    <rect class="cls-21" x="118.22" y="105.09" width="4.43" height="4.43"
          transform="translate(111.15 -53.73) rotate(45)"/>
</svg>